# xmcd CD database file
#
# Track frame offsets:
#	150
#	14001
#	26638
#	42664
#	57653
#	75634
#	87186
#	100426
#	111450
#	126712
#	138316
#	150906
#	163307
#	178833
#	190284
#	201400
#	212723
#	224555
#
# Disc length: 3138 seconds
#
# Revision: 0
# Processed by: cddbd v1.5.2PL0 Copyright (c) Steve Scherf et al.
# Submitted via: CDex 1.70beta2
#
DISCID=1e0c4012
DTITLE=Brazilian Big Bands - Dancing Days 1904-1954 cd2
DYEAR=1900
DGENRE=Jazz
TTITLE0=UM CHORINHO DELICIOSO (Severino Araujo)
TTITLE1=TEIMOSO (Dante Santoro)
TTITLE2=PRIMAVERA DE BEIJOS (Orquestra Victor Brasileira)
TTITLE3=BEIJOS DIVINAIS (Orquestra Victor Brasileira)
TTITLE4=MIMASINHA (Banda da Casa Edison)
TTITLE5=ATRAVES DA VIDRACA (Radamés Gnattali)
TTITLE6=ATRAENTE (Zacarias)
TTITLE7=SE ELA NÃO JUROU (Grupo Velha Guarda)
TTITLE8=JA TE DIGO (Pixinguinha and A Velha Guarda)
TTITLE9=TICO TICO NO FUBA (Sivuca)
TTITLE10=DELICADO (Chiquinho do Acordeon)
TTITLE11=PARAQUEDISTA (Severino Araujo)
TTITLE12=FEITICO DA VILA (Severino Araujo)
TTITLE13=UM BAILE EM CATUMBI (Fon Fon)
TTITLE14=FRÊIO A OLEO (Zacarias)
TTITLE15=FURIOSO (Severino Araujo)
TTITLE16=AQUARELA DO BRASIL (Zacarias)
TTITLE17=BRASIL (Zacarias)
EXTD=
EXTT0=
EXTT1=
EXTT2=
EXTT3=
EXTT4=
EXTT5=
EXTT6=
EXTT7=
EXTT8=
EXTT9=
EXTT10=
EXTT11=
EXTT12=
EXTT13=
EXTT14=
EXTT15=
EXTT16=
EXTT17=
PLAYORDER=
